Coordinates
version=1
nRows=14
nColumns=40
inDegrees=yes

Units are S.I. units (second, meters, Newtons, ...)
Angles are in degrees.

endheader
time	pelvis_tilt	pelvis_list	pelvis_rotation	pelvis_tx	pelvis_ty	pelvis_tz	hip_flexion_r	hip_adduction_r	hip_rotation_r	knee_angle_r	knee_angle_r_beta	ankle_angle_r	subtalar_angle_r	mtp_angle_r	hip_flexion_l	hip_adduction_l	hip_rotation_l	knee_angle_l	knee_angle_l_beta	ankle_angle_l	subtalar_angle_l	mtp_angle_l	lumbar_extension	lumbar_bending	lumbar_rotation	arm_flex_r	arm_add_r	arm_rot_r	elbow_flex_r	pro_sup_r	wrist_flex_r	wrist_dev_r	arm_flex_l	arm_add_l	arm_rot_l	elbow_flex_l	pro_sup_l	wrist_flex_l	wrist_dev_l
     32.07128571	     -5.29635066	     -6.70059477	      0.84773573	      1.07068500	      0.91445574	      0.52974772	     -2.86178808	      6.14682383	    -16.61032751	      8.10995304	      8.10995304	     18.44194510	     10.33901834	     -3.00811207	     34.15480049	    -12.66640510	     -5.31330505	     19.24169773	     19.24169773	      2.07123358	     -8.60506221	      9.23567067	     -8.65250183	      8.79640808	      4.76247547	     44.62087669	    -11.87779112	      1.87542520	     93.85431086	     44.38412155	      0.00000000	      0.00000000	    -15.23672292	     -7.05327925	     -0.09412467	     22.45338645	     46.19306975	      0.00000000	      0.00000000
     32.08257143	     -5.38397373	     -6.57740278	      0.73322518	      1.07093585	      0.91286110	      0.52771935	     -3.24189712	      5.80269580	    -16.43877589	      8.51181056	      8.51181056	     19.13996337	     10.25105353	     -2.49908771	     33.92753239	    -12.26677036	     -4.72043591	     20.40400315	     20.40400315	      1.48888382	     -9.92464903	      8.62183114	     -8.48184533	      8.62185194	      5.04397431	     45.07439631	    -12.30059179	      1.93079190	     97.30231907	     44.30724576	      0.00000000	      0.00000000	    -15.62857597	     -7.09698852	     -0.13150902	     22.53250550	     46.18501941	      0.00000000	      0.00000000
     32.09385714	     -5.46753261	     -6.49495774	      0.63528475	      1.07121705	      0.91137979	      0.52560120	     -3.61645039	      5.49218872	    -16.30347080	      8.91357370	      8.91357370	     19.70169615	     10.15432109	     -2.02981107	     33.80209134	    -11.95508141	     -4.22606147	     21.68956793	     21.68956793	      1.12920756	    -10.85814056	      8.01503605	     -8.28822480	      8.50617587	      5.18652564	     45.60449351	    -12.50737594	      1.85867476	    100.03219014	     44.26607137	      0.00000000	      0.00000000	    -15.88006482	     -7.11547316	     -0.10099006	     22.34778134	     46.17009012	      0.00000000	      0.00000000
     32.10514286	     -5.52855558	     -6.41107148	      0.57063400	      1.07152934	      0.91005542	      0.52335913	     -4.02431519	      5.17693922	    -16.16868115	      9.28251248	      9.28251248	     20.06123587	     10.02415879	     -2.01136134	     33.74437456	    -11.65877736	     -3.73213306	     23.05578994	     23.05578994	      1.16870673	    -11.52127902	      7.66594252	     -8.08367742	      8.41059967	      4.90969928	     46.38934551	    -12.23403779	      1.92188470	    101.60350497	     44.22797546	      0.00000000	      0.00000000	    -16.15647647	     -7.04759609	     -0.07679470	     22.15404844	     46.15994349	      0.00000000	      0.00000000
     32.11642857	     -5.63570865	     -6.10768051	      0.52069605	      1.07200075	      0.90915070	      0.52084200	     -4.49799941	      4.63400523	    -16.03557978	      9.42250325	      9.42250325	     20.25409550	      9.92187030	     -2.00405893	     33.52512786	    -11.14576052	     -3.44918205	     24.01798551	     24.01798551	      1.45189089	    -11.88292056	      7.35326603	     -7.72040233	      8.03742111	      4.78499633	     46.87194369	    -12.21912580	      1.91104601	    102.26373119	     44.21190556	      0.00000000	      0.00000000	    -16.25362742	     -7.04318801	     -0.07402047	     22.08641278	     46.15761570	      0.00000000	      0.00000000
     32.12771429	     -5.74213255	     -6.04620769	      0.52173459	      1.07211484	      0.90819459	      0.51820256	     -4.60326715	      4.24849035	    -15.93112819	     10.24955877	     10.24955877	     20.55199704	      9.62477438	     -1.95074132	     33.70615242	    -10.81135780	     -2.76603647	     25.44922038	     25.44922038	      1.71118749	    -12.87398349	      6.97905469	     -7.68811559	      8.05362537	      4.37107574	     47.16074825	    -12.15349017	      2.24016648	    105.66858864	     44.11108566	      0.00000000	      0.00000000	    -16.19299642	     -6.93249501	     -0.07078763	     22.03836690	     46.15791210	      0.00000000	      0.00000000
     32.13900000	     -5.79818103	     -5.74139411	      0.55162437	      1.07246799	      0.90786489	      0.51521531	     -4.87494549	      3.59104764	    -15.92901911	     10.87458134	     10.87458134	     20.77079757	      9.44590733	     -1.77638832	     33.59636919	    -10.23655398	     -2.34840888	     26.48721013	     26.48721013	      2.24078281	    -13.60318499	      6.78853347	     -7.60760802	      7.73912176	      4.87444824	     46.65161267	    -13.19231164	      2.09898133	    108.98849860	     44.04162403	      0.00000000	      0.00000000	    -15.66387778	     -7.02890076	     -0.06508215	     22.02801100	     46.16609951	      0.00000000	      0.00000000
     32.15028571	     -5.83566473	     -5.54509598	      0.63089951	      1.07279440	      0.90779905	      0.51203578	     -5.18266694	      3.05110664	    -15.95347110	     11.44941481	     11.44941481	     20.84191854	      9.32874435	     -1.84343141	     33.50262124	     -9.78319192	     -2.05455073	     27.49636041	     27.49636041	      2.96407877	    -14.16078988	      6.53387392	     -7.48495154	      7.62654677	      4.62300256	     46.70970110	    -13.30810210	      1.98855477	    110.41914749	     44.01510286	      0.00000000	      0.00000000	    -15.13314980	     -6.91962473	      0.01567789	     22.03362269	     46.16006017	      0.00000000	      0.00000000
     32.16157143	     -5.91569059	     -5.23195130	      0.66928847	      1.07308086	      0.90808132	      0.50866318	     -5.29569961	      2.29118045	    -16.02546276	     12.29904964	     12.29904964	     20.77829971	      9.36163683	     -2.11910309	     33.34430798	     -9.18783610	     -1.73453257	     28.32104709	     28.32104709	      3.83240188	    -14.74862065	      6.72288242	     -7.37750713	      7.34579805	      4.70268359	     46.07065819	    -13.95510570	      1.82972257	    112.76649304	     43.97162751	      0.00000000	      0.00000000	    -14.45750366	     -6.95731581	      0.12078950	     22.07857855	     46.14886668	      0.00000000	      0.00000000
     32.17285714	     -5.94292657	     -4.96811618	      0.74283875	      1.07345406	      0.90873018	      0.50508136	     -5.46836883	      1.55831578	    -16.18933017	     13.12898034	     13.12898034	     20.48741850	      9.49161935	     -2.75687894	     33.07714233	     -8.62302335	     -1.47341921	     29.04629781	     29.04629781	      4.93960094	    -15.21760888	      7.37929711	     -7.32091865	      7.17016888	      4.99374353	     45.16611675	    -14.81902459	      1.36983870	    114.94117415	     43.95883277	      0.00000000	      0.00000000	    -13.50123344	     -6.94542389	      0.37006858	     22.21105422	     46.10842111	      0.00000000	      0.00000000
     32.18414286	     -6.00314207	     -4.71275772	      0.80684989	      1.07382139	      0.90953530	      0.50130715	     -5.44761929	      0.76869984	    -16.31367185	     14.25334381	     14.25334381	     20.11712071	      9.48811397	     -3.49039970	     32.74149333	     -8.06852325	     -1.33016586	     29.58186889	     29.58186889	      5.88621688	    -15.64015822	      7.70662502	     -7.21078976	      7.05446434	      4.80058998	     44.44691996	    -15.16128207	      1.24930927	    116.21685132	     43.94810076	      0.00000000	      0.00000000	    -12.76468153	     -6.83628920	      0.56290443	     22.55982854	     46.07446899	      0.00000000	      0.00000000
     32.19542857	     -5.95070217	     -4.65226001	      0.88718437	      1.07439444	      0.91083512	      0.49755850	     -5.74849951	      0.28474217	    -16.25951864	     14.94528452	     14.94528452	     19.57197327	      9.42697513	     -3.53072364	     32.16025879	     -7.72345722	     -1.18428818	     29.88672607	     29.88672607	      6.68746421	    -15.88542990	      7.44435142	     -7.16955758	      7.15644934	      4.30257369	     43.89786560	    -15.20830480	      1.29039495	    116.35055112	     43.94259642	      0.00000000	      0.00000000	    -12.05669809	     -6.59887702	      0.61595913	     22.87896490	     46.07599198	      0.00000000	      0.00000000
     32.20671429	     -6.05988493	     -4.20756608	      0.81632658	      1.07461379	      0.91183060	      0.49362944	     -5.00598453	     -1.00419402	    -16.40082585	     17.35219192	     17.35219192	     19.17512625	      9.37591638	     -4.94197581	     31.60918886	     -7.02022456	     -1.33627592	     30.01479421	     30.01479421	      7.43443038	    -16.24429263	      7.80075423	     -7.03319729	      6.85902554	      4.32418796	     42.55740240	    -15.75439837	      1.27769449	    117.62875834	     43.91216021	      0.00000000	      0.00000000	    -11.31006640	     -6.55924818	      0.62712340	     23.74934318	     46.07531078	      0.00000000	      0.00000000
     32.21800000	     -6.09083742	     -4.01216826	      0.79451092	      1.07500438	      0.91311787	      0.48971321	     -4.54675085	     -1.93717500	    -16.47455779	     19.28299733	     19.28299733	     18.20380250	      9.31332928	     -6.64409195	     30.93906580	     -6.53361309	     -1.32560148	     30.05882461	     30.05882461	      8.26652866	    -16.44539474	      8.24457794	     -6.98425114	      6.84300392	      4.42579194	     41.02804056	    -16.44353965	      0.98856416	    118.55377162	     43.90347389	      0.00000000	      0.00000000	    -10.50351296	     -6.48250617	      0.65005206	     24.86971581	     46.06985952	      0.00000000	      0.00000000
